<svg xmlns="http://www.w3.org/2000/svg" viewBox="0 0 20 20"><defs><style>.cls-1{fill:#f05133;}</style></defs><title>Asset 4</title><g id="Layer_2" data-name="Layer 2"><g id="Layer_1-2" data-name="Layer 1"><path class="cls-1" d="M19.62,9.11,10.89.38a1.27,1.27,0,0,0-1.82,0L7.26,2.19l2.3,2.3a1.53,1.53,0,0,1,1.93,2l2.22,2.22A1.51,1.51,0,0,1,15.29,9a1.53,1.53,0,1,1-2.5.5L10.72,7.45V12.9a1.42,1.42,0,0,1,.41.28,1.53,1.53,0,1,1-2.17,0,1.81,1.81,0,0,1,.5-.33V7.36A1.64,1.64,0,0,1,9,7a1.53,1.53,0,0,1-.33-1.67L6.36,3.08l-6,6a1.27,1.27,0,0,0,0,1.82l8.73,8.73a1.27,1.27,0,0,0,1.82,0l8.69-8.69A1.27,1.27,0,0,0,19.62,9.11Z"/></g></g></svg>